PathFileType	4	(X/Y/Z)	Patient4_TMGait_0pt8_01_right_29.trc.trc
DataRate	CameraRate	NumFrames	NumMarkers	Units	OrigDataRate	OrigDataStartFrame	OrigNumFrames
88.050314465409	88.050314465409	6	33	mm	88.050314465409	53	       141
Frame#	Time	Sacral			L.Shoulder			Chest			R.Shoulder			Neck			R.ASIS			L.ASIS			R.Thigh.Superior			R.Thigh.Lateral			R.Thigh.Inferior			R.Patella			L.Thigh.Superior			L.Thigh.Lateral			L.Thigh.Inferior			L.Patella			L.Shank.Superior			L.Shank.Lateral			L.Shank.Inferior			R.Shank.Superior			R.Shank.Lateral			R.Shank.Inferior			R.Heel			R.Midfoot.Superior			R.Midfoot.Lateral			R.Toe			L.Heel			L.Midfoot.Lateral			L.Midfoot.Superior			L.Toe			L.Elbow			L.Wrist			R.Elbow			R.Wrist			
		X1	Y1	Z1	X2	Y2	Z2	X3	Y3	Z3	X4	Y4	Z4	X5	Y5	Z5	X6	Y6	Z6	X7	Y7	Z7	X8	Y8	Z8	X9	Y9	Z9	X10	Y10	Z10	X11	Y11	Z11	X12	Y12	Z12	X13	Y13	Z13	X14	Y14	Z14	X15	Y15	Z15	X16	Y16	Z16	X17	Y17	Z17	X18	Y18	Z18	X19	Y19	Z19	X20	Y20	Z20	X21	Y21	Z21	X22	Y22	Z22	X23	Y23	Z23	X24	Y24	Z24	X25	Y25	Z25	X26	Y26	Z26	X27	Y27	Z27	X28	Y28	Z28	X29	Y29	Z29	X30	Y30	Z30	X31	Y31	Z31	X32	Y32	Z32	X33	Y33	Z33	

53	32.990571428571	847.921235325572	1007.196651029380	547.469554125882	1017.677188058146	1428.116055351184	346.736850487066	1130.261043934420	1364.666508641898	504.318698540676	1056.674389555171	1441.069172086692	682.078899309735	1008.680325452816	1494.090257833923	500.278789212062	1080.705472997770	944.528770011058	653.031943508912	1051.801676191331	959.705077866691	380.126963113574	1117.532039745405	741.241150528547	623.681233484452	1034.328657740228	632.482032681654	682.566541215239	1107.868292778780	578.974667048493	600.817690105590	1105.135538230179	488.588487424653	605.102462839065	1138.600483905464	782.657713551053	404.146409820100	1096.098459166629	658.594906992442	321.358454228124	1205.572527046903	598.326603239386	376.580394886679	1221.912834275643	510.185314180156	365.849459471565	1158.179546737094	441.131656867858	356.750140927897	1016.405706757655	391.603440228163	316.306565650081	1019.265377244272	257.874301912802	359.876014798989	1070.815437196523	401.564906598352	611.692075191462	995.059116123049	301.947452199492	673.582158715265	1028.538855606601	205.323513717823	607.907246562111	882.705396631637	45.653513504703	582.531309471312	1055.477772215362	97.467253570955	614.410485049097	967.124164341580	38.308292565977	654.882928032656	1175.272416367761	40.915439291884	641.170718144199	839.293690821436	180.136072249289	409.652895744580	889.300509966843	140.737292103645	321.296662565470	995.727863233920	151.425594588382	332.932058270151	1072.638333573256	43.812615284475	289.883709572592	1016.552427239553	1066.091727822309	253.011684463471	1131.353036159452	831.027904681743	255.695019068868	1060.844696879020	1095.321503587113	816.242058889156	1248.052413786651	916.649407646565	792.522282411251	
54	33.001928571429	846.361896206399	1008.448653579431	548.684638761864	1016.138720288413	1428.419562176310	346.811396868152	1129.557712903680	1364.922606840120	503.744775778577	1057.471594056535	1442.026199570061	681.831639237062	1008.299255019034	1494.745963027141	500.160428375169	1079.117730884362	944.752020425891	653.143648006742	1049.168227241876	960.697998601677	380.331833125966	1112.519922956727	740.436119700127	622.804403966843	1028.219331440801	632.847361120035	682.842067486781	1099.921114611156	578.187087355628	600.577853443765	1095.655278126634	488.372187001524	604.942159860134	1137.723080400744	786.612000773624	404.505117901265	1097.141236710544	661.644605230541	321.627596814348	1207.477604818284	603.324208895428	376.333097089608	1225.887256503491	516.362047699150	365.425312397667	1165.941387374058	445.239023989623	356.118332278821	1027.533023413116	387.213498892092	315.896972037671	1039.150717804028	253.447118501567	358.754704676938	1061.674646128985	401.574606782275	611.846323504621	985.886117948545	301.989999756159	673.744203628473	1019.346241434071	205.342641615263	608.017310101205	873.519714047873	45.606168637588	582.538643120766	1046.299093895631	97.461437811313	614.438825941317	957.937856612884	38.296961997739	654.918877634780	1166.059946814645	40.926352960803	641.190277479025	864.753029128169	163.059260590323	408.776452113764	917.145098968346	128.519770458655	319.732637484083	1022.674823887698	146.457178786306	331.164472240194	1107.013972510773	45.229999846820	286.545339108297	1007.963404410035	1066.171342773911	254.078632769804	1106.834647916433	824.164794806409	255.820343316484	1073.056506946856	1097.181312901006	816.816823432375	1272.283489469473	933.294276361952	789.220714711328	
55	33.013285714286	844.822455452134	1009.633363847683	549.707602665571	1014.731136136815	1428.688186181785	346.839709599075	1128.939551029411	1365.042181753137	503.100986195112	1058.350722339902	1442.836972635723	681.493139616976	1007.983041130943	1495.269949686850	500.036749826536	1077.544740079544	944.874647615850	653.093023649205	1046.571067712831	961.485299769830	380.389265646833	1107.414281845631	739.563624832697	621.828183268435	1021.998300866898	633.192051618065	683.077984980524	1091.804325999808	577.372007777104	600.323474067291	1086.033243028500	488.202884529809	604.804440319457	1136.478942615258	789.975460727537	404.812983640145	1097.433295393792	664.136252889143	321.911717958381	1208.347154482638	607.450966426195	376.245297498275	1228.664819245075	521.922041048044	365.258081738634	1172.810345284918	448.983593766354	355.749223550591	1038.825572821781	382.235217154062	315.117387587795	1059.338851906650	249.102245750965	357.647270869213	1052.415230320976	401.623795123190	612.001251683338	976.633925530032	302.044175774336	673.923606971461	1010.086370444543	205.386652152200	608.145810921529	864.325806723840	45.557920481862	582.539828151921	1037.130157819500	97.473728205629	614.499812153211	948.751394583219	38.278632383550	654.957555055488	1156.850364199285	40.936121615163	641.208155752749	891.515333123636	146.214476266124	407.050835773871	946.489074664750	116.529662135970	317.867460358024	1050.442295527431	141.811290731592	329.688747586459	1142.065465163538	47.416786862705	284.524033379685	998.960399137923	1066.511443242508	254.826809368009	1082.491173261876	819.020847827003	256.131452278476	1085.225051914020	1099.347478982934	817.068397608541	1295.290986613279	951.175369847456	785.435959349623	
56	33.024642857143	843.334698581844	1010.718493127364	550.537184192421	1013.457672443998	1428.900928595706	346.807276800277	1128.405402359126	1365.009333377231	502.383161081496	1059.300022305297	1443.477850906926	681.057961260608	1007.735154657824	1495.640257429345	499.913161118877	1076.009188207533	944.894258002853	652.883308128727	1044.074233411789	962.048645781498	380.286061829190	1102.266985655947	738.617074405736	620.853495527298	1015.666169064812	633.504149537436	683.291701139476	1083.572975253894	576.526224109032	600.112853794081	1076.340337499967	488.067345427965	604.732845302108	1134.877555982921	792.649919633267	405.082453479180	1096.991445367740	666.022980192550	322.158962611891	1208.178920398102	610.597661085439	376.336686792020	1230.252740092874	526.770226973501	365.371769499886	1178.747871481246	452.343129699955	355.675893516655	1050.301898848024	376.832899867191	313.946456424388	1079.668121533881	245.070958607138	356.616398893177	1043.069642743091	401.704214811334	612.173032807353	967.318113818559	302.111763630107	674.131713088061	1000.775196308298	205.454693171677	608.298178219198	855.124825972828	45.512586438533	582.541391157149	1027.967521267204	97.495476360273	614.587573311273	939.564700835104	38.252841824131	654.999364167289	1147.645777547136	40.944407599558	641.228576629363	919.373896069388	130.059768876022	404.509013798168	977.156434518339	105.178878126198	315.781528904559	1078.815741624869	137.784412458055	328.595349070528	1177.471056496760	50.619704689628	284.030036219600	989.555518136239	1067.125107401138	255.267216275353	1058.570593153515	815.451201334625	256.629623189985	1097.306612806804	1101.785836743849	816.993488072243	1316.924173758869	970.118644282834	781.217826099824	
57	33.036000000000	841.930665458975	1011.671234504582	551.170541966427	1012.318062094913	1429.035871915670	346.699806925758	1127.949529769345	1364.811407661460	501.590024829315	1060.297728618686	1443.928704969208	680.521754949303	1007.554018856735	1495.838118997619	499.789872932370	1074.533793619786	944.806181653160	652.522289869636	1041.735312725580	962.375993309517	380.014778619612	1097.130534817260	737.589736090320	619.970148835289	1009.228234871466	633.774424728941	683.495442568711	1075.285438644956	575.647019146197	599.994897440009	1066.648551346521	487.946676289362	604.761102156490	1132.934633476426	794.552464116302	405.313101764900	1095.857319465978	667.276677752952	322.304934102731	1207.003523839650	612.694857944965	376.607682683667	1230.693688194835	530.841670709183	365.768125325929	1183.739299987549	455.310173842323	355.896937111255	1061.929836022485	371.189100365941	312.404339815603	1099.947760935557	241.557002214143	355.716122138110	1033.670167998873	401.805485286649	612.372905618762	957.953139448989	302.194248139982	674.374582177652	991.428755282114	205.544055224712	608.477195503148	845.918597485061	45.472031447022	582.548489093841	1018.806003397229	97.516761117208	614.691917198843	930.377475593637	38.219018466778	655.043809916506	1138.447625032107	40.951565824176	641.253754103492	948.054260844169	114.993956808895	401.269784440124	1008.872477492897	94.827223843414	313.591141044888	1107.526512594700	134.627951558750	327.946668664610	1212.866564066472	55.026555270212	285.149985937543	979.779203836035	1068.022560421985	255.422605149486	1035.268401835557	813.280909143314	257.306141727308	1109.262210990384	1104.459494960742	816.587428396884	1337.059168029302	989.930864906818	776.622374503986	
58	33.047357142857	840.638537400739	1012.459425126049	551.603983052919	1011.307814499112	1429.071258064321	346.504262309494	1127.562168568837	1364.439930530387	500.722794063556	1061.313823811981	1444.173673345369	679.881669562057	1007.431860367841	1495.849037710837	499.660240363638	1073.141283264899	944.603345273581	652.020889649558	1039.597925155395	962.458478002120	379.575428073713	1092.056917780869	736.475017882370	619.247218309725	1002.698977776684	633.996080780690	683.694844729439	1067.003150928437	574.732293998959	600.003243548211	1057.029403472161	487.817219026274	604.908568707297	1130.675960445519	795.623213091324	405.494985925712	1094.101344384868	667.889743855812	322.281643157993	1204.892044393924	613.720764603295	377.041303874331	1230.069114283719	534.103477713110	366.427390728124	1187.795669289057	457.888378849471	356.374421738759	1073.613879946596	365.492281136142	310.559041006532	1119.953027769096	238.721882750149	354.985998452242	1024.250271413863	401.915508288539	612.606157239686	948.555777656926	302.292527464669	674.652675714524	982.063840909743	205.650257139266	608.682935349148	836.709200936569	45.436858280017	582.564409675653	1009.640315081836	97.528363552630	614.801408996374	921.189388005844	38.176932848031	655.089666208921	1129.256688530353	40.958063173449	641.283990419992	977.210554537094	101.342307597078	397.538014758057	1041.243828099917	85.761366382546	311.440571704576	1136.237077340415	132.527263924919	327.766503190441	1247.823768354558	60.736933554204	287.818254247951	969.680980128286	1069.207896342759	255.326992110708	1012.722321260539	812.319339729091	258.138658357916	1121.055144052584	1107.331207608006	815.844875688186	1355.600827626631	1010.405482985301	771.709359569664	
